<mxfile host="app.diagrams.net" modified="2022-12-19T08:45:54.305Z" agent="5.0 (Macintosh; Intel Mac OS X 10_15_7) AppleWebKit/537.36 (KHTML, like Gecko) Chrome/108.0.0.0 Safari/537.36 Edg/108.0.1462.46" etag="_SIc1etqGKwCgWVdYozG" version="20.7.4" type="github">
  <diagram id="prtHgNgQTEPvFCAcTncT" name="Page-1">
    <mxGraphModel dx="906" dy="570" grid="1" gridSize="10" guides="1" tooltips="1" connect="1" arrows="1" fold="1" page="1" pageScale="1" pageWidth="827" pageHeight="1169" math="0" shadow="0">
      <root>
        <mxCell id="0" />
        <mxCell id="1" parent="0" />
        <mxCell id="dNxyNK7c78bLwvsdeMH5-19" value="" style="swimlane;html=1;childLayout=stackLayout;resizeParent=1;resizeParentMax=0;horizontal=0;startSize=20;horizontalStack=0;" parent="1" vertex="1">
          <mxGeometry x="130" y="130" width="760" height="1020" as="geometry" />
        </mxCell>
        <mxCell id="dNxyNK7c78bLwvsdeMH5-20" value="商单" style="swimlane;html=1;startSize=20;horizontal=0;" parent="dNxyNK7c78bLwvsdeMH5-19" vertex="1">
          <mxGeometry x="20" width="740" height="310" as="geometry" />
        </mxCell>
        <mxCell id="dNxyNK7c78bLwvsdeMH5-25" value="" style="edgeStyle=orthogonalEdgeStyle;rounded=0;orthogonalLoop=1;jettySize=auto;html=1;" parent="dNxyNK7c78bLwvsdeMH5-20" source="dNxyNK7c78bLwvsdeMH5-23" target="dNxyNK7c78bLwvsdeMH5-24" edge="1">
          <mxGeometry relative="1" as="geometry" />
        </mxCell>
        <mxCell id="dNxyNK7c78bLwvsdeMH5-23" value="开始执行添加执行群" style="ellipse;whiteSpace=wrap;html=1;" parent="dNxyNK7c78bLwvsdeMH5-20" vertex="1">
          <mxGeometry x="190" width="50" height="75" as="geometry" />
        </mxCell>
        <mxCell id="0b40yJRrr1ERWm2AsXEs-85" value="" style="edgeStyle=orthogonalEdgeStyle;rounded=0;orthogonalLoop=1;jettySize=auto;html=1;fontSize=10;exitX=0.75;exitY=1;exitDx=0;exitDy=0;" parent="dNxyNK7c78bLwvsdeMH5-20" source="dNxyNK7c78bLwvsdeMH5-24" target="0b40yJRrr1ERWm2AsXEs-84" edge="1">
          <mxGeometry relative="1" as="geometry" />
        </mxCell>
        <mxCell id="0b40yJRrr1ERWm2AsXEs-86" style="edgeStyle=orthogonalEdgeStyle;rounded=0;orthogonalLoop=1;jettySize=auto;html=1;exitX=0.25;exitY=1;exitDx=0;exitDy=0;fontSize=10;" parent="dNxyNK7c78bLwvsdeMH5-20" source="dNxyNK7c78bLwvsdeMH5-24" target="0b40yJRrr1ERWm2AsXEs-13" edge="1">
          <mxGeometry relative="1" as="geometry" />
        </mxCell>
        <mxCell id="dNxyNK7c78bLwvsdeMH5-24" value="查询可绑定群列表&lt;sup&gt;4&lt;/sup&gt;" style="rounded=0;whiteSpace=wrap;html=1;fontFamily=Helvetica;fontSize=12;fontColor=#000000;align=center;" parent="dNxyNK7c78bLwvsdeMH5-20" vertex="1">
          <mxGeometry x="320" y="7.5" width="80" height="60" as="geometry" />
        </mxCell>
        <mxCell id="0b40yJRrr1ERWm2AsXEs-88" style="edgeStyle=orthogonalEdgeStyle;rounded=0;orthogonalLoop=1;jettySize=auto;html=1;exitX=0.5;exitY=1;exitDx=0;exitDy=0;entryX=0;entryY=0.5;entryDx=0;entryDy=0;fontSize=10;" parent="dNxyNK7c78bLwvsdeMH5-20" source="0b40yJRrr1ERWm2AsXEs-13" target="0b40yJRrr1ERWm2AsXEs-87" edge="1">
          <mxGeometry relative="1" as="geometry" />
        </mxCell>
        <mxCell id="0b40yJRrr1ERWm2AsXEs-13" value="指定达人进群" style="rounded=0;whiteSpace=wrap;html=1;fontFamily=Helvetica;fontSize=12;fontColor=#000000;align=center;" parent="dNxyNK7c78bLwvsdeMH5-20" vertex="1">
          <mxGeometry x="260" y="97.5" width="80" height="60" as="geometry" />
        </mxCell>
        <mxCell id="0b40yJRrr1ERWm2AsXEs-77" style="edgeStyle=orthogonalEdgeStyle;rounded=0;orthogonalLoop=1;jettySize=auto;html=1;exitX=0;exitY=0.5;exitDx=0;exitDy=0;" parent="dNxyNK7c78bLwvsdeMH5-20" source="0b40yJRrr1ERWm2AsXEs-76" target="dNxyNK7c78bLwvsdeMH5-24" edge="1">
          <mxGeometry relative="1" as="geometry" />
        </mxCell>
        <mxCell id="0b40yJRrr1ERWm2AsXEs-76" value="执行编辑添加执行群&lt;sup&gt;2&lt;/sup&gt;" style="ellipse;whiteSpace=wrap;html=1;" parent="dNxyNK7c78bLwvsdeMH5-20" vertex="1">
          <mxGeometry x="480" width="50" height="75" as="geometry" />
        </mxCell>
        <mxCell id="0b40yJRrr1ERWm2AsXEs-91" style="edgeStyle=orthogonalEdgeStyle;rounded=0;orthogonalLoop=1;jettySize=auto;html=1;exitX=0.75;exitY=1;exitDx=0;exitDy=0;entryX=1;entryY=0.5;entryDx=0;entryDy=0;fontSize=10;" parent="dNxyNK7c78bLwvsdeMH5-20" source="0b40yJRrr1ERWm2AsXEs-84" target="0b40yJRrr1ERWm2AsXEs-87" edge="1">
          <mxGeometry relative="1" as="geometry" />
        </mxCell>
        <mxCell id="0b40yJRrr1ERWm2AsXEs-84" value="按照合作类型匹配" style="rounded=0;whiteSpace=wrap;html=1;fontFamily=Helvetica;fontSize=12;fontColor=#000000;align=center;" parent="dNxyNK7c78bLwvsdeMH5-20" vertex="1">
          <mxGeometry x="370" y="97.5" width="80" height="60" as="geometry" />
        </mxCell>
        <mxCell id="0b40yJRrr1ERWm2AsXEs-87" value="绑定群" style="rounded=0;whiteSpace=wrap;html=1;fontFamily=Helvetica;fontSize=12;fontColor=#000000;align=center;" parent="dNxyNK7c78bLwvsdeMH5-20" vertex="1">
          <mxGeometry x="320" y="177.5" width="80" height="60" as="geometry" />
        </mxCell>
        <mxCell id="dNxyNK7c78bLwvsdeMH5-21" value="执行面板" style="swimlane;html=1;startSize=20;horizontal=0;verticalAlign=top;" parent="dNxyNK7c78bLwvsdeMH5-19" vertex="1">
          <mxGeometry x="20" y="310" width="740" height="270" as="geometry" />
        </mxCell>
        <mxCell id="0b40yJRrr1ERWm2AsXEs-32" style="edgeStyle=orthogonalEdgeStyle;rounded=0;orthogonalLoop=1;jettySize=auto;html=1;exitX=0.75;exitY=0;exitDx=0;exitDy=0;entryX=0.25;entryY=0;entryDx=0;entryDy=0;" parent="dNxyNK7c78bLwvsdeMH5-21" source="dNxyNK7c78bLwvsdeMH5-26" target="0b40yJRrr1ERWm2AsXEs-16" edge="1">
          <mxGeometry relative="1" as="geometry" />
        </mxCell>
        <mxCell id="0b40yJRrr1ERWm2AsXEs-33" style="edgeStyle=orthogonalEdgeStyle;rounded=0;orthogonalLoop=1;jettySize=auto;html=1;exitX=1;exitY=0.5;exitDx=0;exitDy=0;" parent="dNxyNK7c78bLwvsdeMH5-21" source="dNxyNK7c78bLwvsdeMH5-26" target="0b40yJRrr1ERWm2AsXEs-18" edge="1">
          <mxGeometry relative="1" as="geometry" />
        </mxCell>
        <mxCell id="dNxyNK7c78bLwvsdeMH5-26" value="执行群看板&lt;br&gt;执行群列表" style="rounded=0;whiteSpace=wrap;html=1;fontFamily=Helvetica;fontSize=12;fontColor=#000000;align=center;" parent="dNxyNK7c78bLwvsdeMH5-21" vertex="1">
          <mxGeometry x="50" y="30" width="75" height="60" as="geometry" />
        </mxCell>
        <mxCell id="0b40yJRrr1ERWm2AsXEs-21" value="" style="edgeStyle=orthogonalEdgeStyle;rounded=0;orthogonalLoop=1;jettySize=auto;html=1;" parent="dNxyNK7c78bLwvsdeMH5-21" source="0b40yJRrr1ERWm2AsXEs-16" target="0b40yJRrr1ERWm2AsXEs-20" edge="1">
          <mxGeometry relative="1" as="geometry">
            <Array as="points">
              <mxPoint x="610" y="120" />
              <mxPoint x="670" y="120" />
            </Array>
          </mxGeometry>
        </mxCell>
        <mxCell id="0b40yJRrr1ERWm2AsXEs-23" style="edgeStyle=orthogonalEdgeStyle;rounded=0;orthogonalLoop=1;jettySize=auto;html=1;exitX=1;exitY=0.75;exitDx=0;exitDy=0;" parent="dNxyNK7c78bLwvsdeMH5-21" source="0b40yJRrr1ERWm2AsXEs-16" target="0b40yJRrr1ERWm2AsXEs-22" edge="1">
          <mxGeometry relative="1" as="geometry">
            <Array as="points">
              <mxPoint x="560" y="75" />
            </Array>
          </mxGeometry>
        </mxCell>
        <mxCell id="0b40yJRrr1ERWm2AsXEs-16" value="已加群" style="rounded=0;whiteSpace=wrap;html=1;fontFamily=Helvetica;fontSize=12;fontColor=#000000;align=center;" parent="dNxyNK7c78bLwvsdeMH5-21" vertex="1">
          <mxGeometry x="550" y="30" width="80" height="60" as="geometry" />
        </mxCell>
        <mxCell id="0b40yJRrr1ERWm2AsXEs-27" style="edgeStyle=orthogonalEdgeStyle;rounded=0;orthogonalLoop=1;jettySize=auto;html=1;exitX=0.5;exitY=1;exitDx=0;exitDy=0;" parent="dNxyNK7c78bLwvsdeMH5-21" source="0b40yJRrr1ERWm2AsXEs-18" target="0b40yJRrr1ERWm2AsXEs-26" edge="1">
          <mxGeometry relative="1" as="geometry">
            <Array as="points">
              <mxPoint x="290" y="90" />
              <mxPoint x="290" y="120" />
              <mxPoint x="210" y="120" />
            </Array>
          </mxGeometry>
        </mxCell>
        <mxCell id="0b40yJRrr1ERWm2AsXEs-29" style="edgeStyle=orthogonalEdgeStyle;rounded=0;orthogonalLoop=1;jettySize=auto;html=1;exitX=0.5;exitY=1;exitDx=0;exitDy=0;" parent="dNxyNK7c78bLwvsdeMH5-21" source="0b40yJRrr1ERWm2AsXEs-18" target="0b40yJRrr1ERWm2AsXEs-28" edge="1">
          <mxGeometry relative="1" as="geometry" />
        </mxCell>
        <mxCell id="0b40yJRrr1ERWm2AsXEs-31" style="edgeStyle=orthogonalEdgeStyle;rounded=0;orthogonalLoop=1;jettySize=auto;html=1;exitX=1;exitY=0.5;exitDx=0;exitDy=0;" parent="dNxyNK7c78bLwvsdeMH5-21" source="0b40yJRrr1ERWm2AsXEs-18" target="0b40yJRrr1ERWm2AsXEs-30" edge="1">
          <mxGeometry relative="1" as="geometry">
            <Array as="points">
              <mxPoint x="330" y="60" />
              <mxPoint x="330" y="120" />
              <mxPoint x="404" y="120" />
            </Array>
          </mxGeometry>
        </mxCell>
        <mxCell id="0b40yJRrr1ERWm2AsXEs-18" value="未加群" style="rounded=0;whiteSpace=wrap;html=1;fontFamily=Helvetica;fontSize=12;fontColor=#000000;align=center;" parent="dNxyNK7c78bLwvsdeMH5-21" vertex="1">
          <mxGeometry x="270" y="30" width="80" height="60" as="geometry" />
        </mxCell>
        <mxCell id="0b40yJRrr1ERWm2AsXEs-20" value="加群记录" style="rounded=0;whiteSpace=wrap;html=1;fontFamily=Helvetica;fontSize=12;fontColor=#000000;align=center;" parent="dNxyNK7c78bLwvsdeMH5-21" vertex="1">
          <mxGeometry x="630" y="140" width="80" height="60" as="geometry" />
        </mxCell>
        <mxCell id="0b40yJRrr1ERWm2AsXEs-22" value="&lt;div style=&quot;text-align: left; font-size: 10px;&quot;&gt;&lt;span style=&quot;background-color: initial; font-size: 10px;&quot;&gt;（指定类型）&lt;/span&gt;&lt;/div&gt;&lt;div style=&quot;text-align: left; font-size: 10px;&quot;&gt;&lt;span style=&quot;background-color: initial; font-size: 10px;&quot;&gt;取消指定达人&lt;/span&gt;&lt;sup style=&quot;background-color: initial; font-size: 10px;&quot;&gt;3&lt;/sup&gt;&lt;/div&gt;" style="rounded=0;html=1;fontFamily=Helvetica;fontSize=4;fontColor=#000000;align=center;" parent="dNxyNK7c78bLwvsdeMH5-21" vertex="1">
          <mxGeometry x="500" y="140" width="80" height="60" as="geometry" />
        </mxCell>
        <mxCell id="0b40yJRrr1ERWm2AsXEs-26" value="关联进群达人" style="rounded=0;whiteSpace=wrap;html=1;fontFamily=Helvetica;fontSize=12;fontColor=#000000;align=center;" parent="dNxyNK7c78bLwvsdeMH5-21" vertex="1">
          <mxGeometry x="170" y="140" width="80" height="60" as="geometry" />
        </mxCell>
        <mxCell id="0b40yJRrr1ERWm2AsXEs-28" value="导入进群（指定）" style="rounded=0;whiteSpace=wrap;html=1;fontFamily=Helvetica;fontSize=12;fontColor=#000000;align=center;" parent="dNxyNK7c78bLwvsdeMH5-21" vertex="1">
          <mxGeometry x="270" y="140" width="80" height="60" as="geometry" />
        </mxCell>
        <mxCell id="0b40yJRrr1ERWm2AsXEs-30" value="加群通知&lt;sup&gt;1&lt;/sup&gt;" style="rounded=0;whiteSpace=wrap;html=1;fontFamily=Helvetica;fontSize=12;fontColor=#000000;align=center;" parent="dNxyNK7c78bLwvsdeMH5-21" vertex="1">
          <mxGeometry x="364" y="140" width="80" height="60" as="geometry" />
        </mxCell>
        <mxCell id="0b40yJRrr1ERWm2AsXEs-35" style="edgeStyle=orthogonalEdgeStyle;rounded=0;orthogonalLoop=1;jettySize=auto;html=1;" parent="dNxyNK7c78bLwvsdeMH5-19" target="dNxyNK7c78bLwvsdeMH5-34" edge="1">
          <mxGeometry relative="1" as="geometry">
            <mxPoint x="330" y="510" as="sourcePoint" />
            <Array as="points">
              <mxPoint x="330" y="510" />
              <mxPoint x="330" y="550" />
              <mxPoint x="180" y="550" />
            </Array>
          </mxGeometry>
        </mxCell>
        <mxCell id="0b40yJRrr1ERWm2AsXEs-39" style="edgeStyle=orthogonalEdgeStyle;rounded=0;orthogonalLoop=1;jettySize=auto;html=1;exitX=0;exitY=0.5;exitDx=0;exitDy=0;entryX=0.25;entryY=0;entryDx=0;entryDy=0;" parent="dNxyNK7c78bLwvsdeMH5-19" source="0b40yJRrr1ERWm2AsXEs-26" target="dNxyNK7c78bLwvsdeMH5-34" edge="1">
          <mxGeometry relative="1" as="geometry" />
        </mxCell>
        <mxCell id="dNxyNK7c78bLwvsdeMH5-22" value="C端" style="swimlane;html=1;startSize=20;horizontal=0;sketch=0;" parent="dNxyNK7c78bLwvsdeMH5-19" vertex="1">
          <mxGeometry x="20" y="580" width="740" height="220" as="geometry" />
        </mxCell>
        <mxCell id="0b40yJRrr1ERWm2AsXEs-41" value="" style="edgeStyle=orthogonalEdgeStyle;rounded=0;orthogonalLoop=1;jettySize=auto;html=1;" parent="dNxyNK7c78bLwvsdeMH5-22" source="dNxyNK7c78bLwvsdeMH5-34" target="0b40yJRrr1ERWm2AsXEs-40" edge="1">
          <mxGeometry relative="1" as="geometry" />
        </mxCell>
        <mxCell id="0b40yJRrr1ERWm2AsXEs-44" value="" style="edgeStyle=orthogonalEdgeStyle;rounded=0;orthogonalLoop=1;jettySize=auto;html=1;" parent="dNxyNK7c78bLwvsdeMH5-22" source="dNxyNK7c78bLwvsdeMH5-34" target="0b40yJRrr1ERWm2AsXEs-43" edge="1">
          <mxGeometry relative="1" as="geometry" />
        </mxCell>
        <mxCell id="dNxyNK7c78bLwvsdeMH5-34" value="达人展示（非功能）" style="rounded=0;whiteSpace=wrap;html=1;fontFamily=Helvetica;fontSize=12;align=center;fillColor=#d5e8d4;strokeColor=#82b366;" parent="dNxyNK7c78bLwvsdeMH5-22" vertex="1">
          <mxGeometry x="120" y="20" width="70" height="60" as="geometry" />
        </mxCell>
        <mxCell id="0b40yJRrr1ERWm2AsXEs-53" style="edgeStyle=orthogonalEdgeStyle;rounded=0;orthogonalLoop=1;jettySize=auto;html=1;exitX=0.5;exitY=1;exitDx=0;exitDy=0;" parent="dNxyNK7c78bLwvsdeMH5-22" source="0b40yJRrr1ERWm2AsXEs-40" target="0b40yJRrr1ERWm2AsXEs-45" edge="1">
          <mxGeometry relative="1" as="geometry" />
        </mxCell>
        <mxCell id="0b40yJRrr1ERWm2AsXEs-40" value="代办事项&lt;sup&gt;5&lt;/sup&gt;" style="rounded=0;whiteSpace=wrap;html=1;fontFamily=Helvetica;fontSize=12;fontColor=#000000;align=center;" parent="dNxyNK7c78bLwvsdeMH5-22" vertex="1">
          <mxGeometry x="270" y="20" width="70" height="60" as="geometry" />
        </mxCell>
        <mxCell id="0b40yJRrr1ERWm2AsXEs-46" value="" style="edgeStyle=orthogonalEdgeStyle;rounded=0;orthogonalLoop=1;jettySize=auto;html=1;" parent="dNxyNK7c78bLwvsdeMH5-22" source="0b40yJRrr1ERWm2AsXEs-43" target="0b40yJRrr1ERWm2AsXEs-45" edge="1">
          <mxGeometry relative="1" as="geometry" />
        </mxCell>
        <mxCell id="0b40yJRrr1ERWm2AsXEs-43" value="合作列表&lt;sup&gt;5&lt;/sup&gt;" style="rounded=0;whiteSpace=wrap;html=1;fontFamily=Helvetica;fontSize=12;fontColor=#000000;align=center;" parent="dNxyNK7c78bLwvsdeMH5-22" vertex="1">
          <mxGeometry x="120" y="130" width="70" height="60" as="geometry" />
        </mxCell>
        <mxCell id="0b40yJRrr1ERWm2AsXEs-49" value="" style="edgeStyle=orthogonalEdgeStyle;rounded=0;orthogonalLoop=1;jettySize=auto;html=1;" parent="dNxyNK7c78bLwvsdeMH5-22" source="0b40yJRrr1ERWm2AsXEs-45" target="0b40yJRrr1ERWm2AsXEs-48" edge="1">
          <mxGeometry relative="1" as="geometry" />
        </mxCell>
        <mxCell id="0b40yJRrr1ERWm2AsXEs-45" value="合作详情" style="rounded=0;whiteSpace=wrap;html=1;fontFamily=Helvetica;fontSize=12;align=center;fillColor=#d5e8d4;strokeColor=#82b366;" parent="dNxyNK7c78bLwvsdeMH5-22" vertex="1">
          <mxGeometry x="270" y="130" width="70" height="60" as="geometry" />
        </mxCell>
        <mxCell id="0b40yJRrr1ERWm2AsXEs-55" style="edgeStyle=orthogonalEdgeStyle;rounded=0;orthogonalLoop=1;jettySize=auto;html=1;exitX=1;exitY=0.5;exitDx=0;exitDy=0;entryX=0;entryY=0.5;entryDx=0;entryDy=0;" parent="dNxyNK7c78bLwvsdeMH5-22" source="0b40yJRrr1ERWm2AsXEs-48" target="0b40yJRrr1ERWm2AsXEs-54" edge="1">
          <mxGeometry relative="1" as="geometry" />
        </mxCell>
        <mxCell id="0b40yJRrr1ERWm2AsXEs-48" value="查询是否有可加入的执行群&lt;sup&gt;6&lt;/sup&gt;" style="rounded=0;whiteSpace=wrap;html=1;fontFamily=Helvetica;fontSize=12;fontColor=#000000;align=center;" parent="dNxyNK7c78bLwvsdeMH5-22" vertex="1">
          <mxGeometry x="400" y="130" width="70" height="60" as="geometry" />
        </mxCell>
        <mxCell id="0b40yJRrr1ERWm2AsXEs-54" value="&lt;span style=&quot;font-variant-ligatures: no-common-ligatures;&quot;&gt;combcenter同步&lt;/span&gt;" style="ellipse;whiteSpace=wrap;html=1;aspect=fixed;" parent="dNxyNK7c78bLwvsdeMH5-22" vertex="1">
          <mxGeometry x="550" y="40" width="80" height="80" as="geometry" />
        </mxCell>
        <mxCell id="0b40yJRrr1ERWm2AsXEs-56" value="额外" style="swimlane;html=1;startSize=20;horizontal=0;" parent="dNxyNK7c78bLwvsdeMH5-19" vertex="1">
          <mxGeometry x="20" y="800" width="740" height="220" as="geometry" />
        </mxCell>
        <mxCell id="0b40yJRrr1ERWm2AsXEs-69" value="&lt;div data-docx-has-block-data=&quot;false&quot; data-page-id=&quot;WbUadzRshoSBZSxBiqmcnJxUndi&quot;&gt;&lt;div class=&quot;old-record-id-R4Kgd4cu0owIKUxET5acNJMHn0e&quot; style=&quot;&quot;&gt;定时删除执行群&lt;/div&gt;&lt;/div&gt;&lt;span class=&quot;lark-record-clipboard&quot; data-lark-record-format=&quot;docx/text&quot; data-lark-record-data=&quot;{&amp;quot;rootId&amp;quot;:&amp;quot;WbUadzRshoSBZSxBiqmcnJxUndi&amp;quot;,&amp;quot;text&amp;quot;:{&amp;quot;initialAttributedTexts&amp;quot;:{&amp;quot;text&amp;quot;:{&amp;quot;0&amp;quot;:&amp;quot;定时删除执行群&amp;quot;},&amp;quot;attribs&amp;quot;:{&amp;quot;0&amp;quot;:&amp;quot;*0+7&amp;quot;}},&amp;quot;apool&amp;quot;:{&amp;quot;numToAttrib&amp;quot;:{&amp;quot;0&amp;quot;:[&amp;quot;author&amp;quot;,&amp;quot;6959087266157314050&amp;quot;]},&amp;quot;nextNum&amp;quot;:1}},&amp;quot;type&amp;quot;:&amp;quot;text&amp;quot;,&amp;quot;referenceRecordMap&amp;quot;:{},&amp;quot;extra&amp;quot;:{&amp;quot;mention_page_title&amp;quot;:{},&amp;quot;external_mention_url&amp;quot;:{}},&amp;quot;isKeepQuoteContainer&amp;quot;:false,&amp;quot;isFromCode&amp;quot;:true,&amp;quot;selection&amp;quot;:[{&amp;quot;id&amp;quot;:16,&amp;quot;type&amp;quot;:&amp;quot;text&amp;quot;,&amp;quot;selection&amp;quot;:{&amp;quot;start&amp;quot;:3,&amp;quot;end&amp;quot;:10},&amp;quot;recordId&amp;quot;:&amp;quot;R4Kgd4cu0owIKUxET5acNJMHn0e&amp;quot;}],&amp;quot;isCut&amp;quot;:false}&quot;&gt;&lt;/span&gt;" style="rounded=0;whiteSpace=wrap;html=1;" parent="0b40yJRrr1ERWm2AsXEs-56" vertex="1">
          <mxGeometry x="80" y="30" width="120" height="60" as="geometry" />
        </mxCell>
        <mxCell id="0b40yJRrr1ERWm2AsXEs-72" style="edgeStyle=orthogonalEdgeStyle;rounded=0;orthogonalLoop=1;jettySize=auto;html=1;exitX=1;exitY=0.5;exitDx=0;exitDy=0;entryX=1;entryY=0.5;entryDx=0;entryDy=0;" parent="dNxyNK7c78bLwvsdeMH5-19" source="0b40yJRrr1ERWm2AsXEs-54" target="0b40yJRrr1ERWm2AsXEs-16" edge="1">
          <mxGeometry relative="1" as="geometry">
            <Array as="points">
              <mxPoint x="750" y="660" />
              <mxPoint x="750" y="370" />
            </Array>
          </mxGeometry>
        </mxCell>
        <mxCell id="0b40yJRrr1ERWm2AsXEs-92" value="&lt;span style=&quot;font-size: 12px; font-variant-ligatures: no-common-ligatures; background-color: rgb(248, 249, 250);&quot;&gt;记录加群信息&lt;/span&gt;" style="edgeLabel;html=1;align=center;verticalAlign=middle;resizable=0;points=[];fontSize=10;" parent="0b40yJRrr1ERWm2AsXEs-72" vertex="1" connectable="0">
          <mxGeometry x="-0.1204" relative="1" as="geometry">
            <mxPoint x="1" y="1" as="offset" />
          </mxGeometry>
        </mxCell>
        <mxCell id="0b40yJRrr1ERWm2AsXEs-90" style="edgeStyle=orthogonalEdgeStyle;rounded=0;orthogonalLoop=1;jettySize=auto;html=1;exitX=0.5;exitY=1;exitDx=0;exitDy=0;entryX=0.5;entryY=0;entryDx=0;entryDy=0;fontSize=10;" parent="dNxyNK7c78bLwvsdeMH5-19" source="0b40yJRrr1ERWm2AsXEs-87" target="dNxyNK7c78bLwvsdeMH5-26" edge="1">
          <mxGeometry relative="1" as="geometry" />
        </mxCell>
        <mxCell id="0b40yJRrr1ERWm2AsXEs-83" value="&lt;ol&gt;&lt;li&gt;加群通知是在未加群下，被指定或者符合合作类型匹配规则&lt;/li&gt;&lt;li&gt;执行编辑不允许删除原有执行群，虽然有删除按钮（它的意义仅存在还未保存的执行群）&lt;/li&gt;&lt;li&gt;达人已经报名也可以取消指定（实际没什么意义，但是已经加群了，也无法重新分配加入其他群）&lt;/li&gt;&lt;li&gt;todo&lt;/li&gt;&lt;li&gt;展示加入执行群：&lt;br&gt;a. 在待上传节点&lt;br&gt;b. 有匹配的执行群&lt;/li&gt;&lt;li&gt;&lt;br&gt;&lt;/li&gt;&lt;/ol&gt;" style="rounded=0;whiteSpace=wrap;html=1;fillColor=#fff2cc;strokeColor=#d6b656;align=left;verticalAlign=top;" parent="1" vertex="1">
          <mxGeometry x="940" y="140" width="250" height="300" as="geometry" />
        </mxCell>
        <mxCell id="0b40yJRrr1ERWm2AsXEs-150" style="edgeStyle=orthogonalEdgeStyle;rounded=0;orthogonalLoop=1;jettySize=auto;html=1;exitX=1;exitY=0.5;exitDx=0;exitDy=0;entryX=0;entryY=0.5;entryDx=0;entryDy=0;fontSize=10;" parent="1" source="0b40yJRrr1ERWm2AsXEs-94" target="0b40yJRrr1ERWm2AsXEs-108" edge="1">
          <mxGeometry relative="1" as="geometry" />
        </mxCell>
        <mxCell id="0b40yJRrr1ERWm2AsXEs-94" value="未加群查询逻辑" style="ellipse;whiteSpace=wrap;html=1;aspect=fixed;sketch=0;fontSize=10;fillColor=#ffe6cc;strokeColor=#d79b00;" parent="1" vertex="1">
          <mxGeometry x="1440" y="320" width="80" height="80" as="geometry" />
        </mxCell>
        <mxCell id="0b40yJRrr1ERWm2AsXEs-152" style="edgeStyle=orthogonalEdgeStyle;rounded=0;orthogonalLoop=1;jettySize=auto;html=1;exitX=1;exitY=0.5;exitDx=0;exitDy=0;entryX=0;entryY=0.25;entryDx=0;entryDy=0;fontSize=10;" parent="1" source="0b40yJRrr1ERWm2AsXEs-95" target="0b40yJRrr1ERWm2AsXEs-129" edge="1">
          <mxGeometry relative="1" as="geometry" />
        </mxCell>
        <mxCell id="0b40yJRrr1ERWm2AsXEs-153" value="拿到已加群人信息" style="edgeLabel;html=1;align=center;verticalAlign=middle;resizable=0;points=[];fontSize=10;" parent="0b40yJRrr1ERWm2AsXEs-152" vertex="1" connectable="0">
          <mxGeometry x="-0.0944" y="1" relative="1" as="geometry">
            <mxPoint as="offset" />
          </mxGeometry>
        </mxCell>
        <mxCell id="0b40yJRrr1ERWm2AsXEs-95" value="查询商单绑定的执行群，去combcneter拿到群里所有的人员信息" style="whiteSpace=wrap;html=1;fontSize=10;sketch=0;fillColor=#e1d5e7;strokeColor=#9673a6;" parent="1" vertex="1">
          <mxGeometry x="1735" y="220" width="125" height="60" as="geometry" />
        </mxCell>
        <mxCell id="0b40yJRrr1ERWm2AsXEs-114" value="" style="edgeStyle=orthogonalEdgeStyle;rounded=0;orthogonalLoop=1;jettySize=auto;html=1;fontSize=10;" parent="1" source="0b40yJRrr1ERWm2AsXEs-105" edge="1">
          <mxGeometry relative="1" as="geometry">
            <mxPoint x="1930" y="360" as="targetPoint" />
          </mxGeometry>
        </mxCell>
        <mxCell id="0b40yJRrr1ERWm2AsXEs-120" value="是" style="edgeLabel;html=1;align=center;verticalAlign=middle;resizable=0;points=[];fontSize=10;" parent="0b40yJRrr1ERWm2AsXEs-114" vertex="1" connectable="0">
          <mxGeometry x="-0.0875" relative="1" as="geometry">
            <mxPoint as="offset" />
          </mxGeometry>
        </mxCell>
        <mxCell id="0b40yJRrr1ERWm2AsXEs-143" style="edgeStyle=orthogonalEdgeStyle;rounded=0;orthogonalLoop=1;jettySize=auto;html=1;exitX=0.5;exitY=1;exitDx=0;exitDy=0;entryX=1;entryY=0.5;entryDx=0;entryDy=0;entryPerimeter=0;fontSize=10;" parent="1" source="0b40yJRrr1ERWm2AsXEs-105" target="0b40yJRrr1ERWm2AsXEs-141" edge="1">
          <mxGeometry relative="1" as="geometry" />
        </mxCell>
        <mxCell id="0b40yJRrr1ERWm2AsXEs-147" value="执行已取消" style="edgeLabel;html=1;align=center;verticalAlign=middle;resizable=0;points=[];fontSize=10;" parent="0b40yJRrr1ERWm2AsXEs-143" vertex="1" connectable="0">
          <mxGeometry x="-0.3259" y="-3" relative="1" as="geometry">
            <mxPoint as="offset" />
          </mxGeometry>
        </mxCell>
        <mxCell id="0b40yJRrr1ERWm2AsXEs-105" value="达人合作在进行中&lt;br&gt;（未取消）" style="whiteSpace=wrap;html=1;fontSize=10;sketch=0;fillColor=#dae8fc;strokeColor=#6c8ebf;" parent="1" vertex="1">
          <mxGeometry x="1740" y="330" width="110" height="60" as="geometry" />
        </mxCell>
        <mxCell id="0b40yJRrr1ERWm2AsXEs-110" style="edgeStyle=orthogonalEdgeStyle;rounded=0;orthogonalLoop=1;jettySize=auto;html=1;exitX=1;exitY=0.5;exitDx=0;exitDy=0;fontSize=10;" parent="1" source="0b40yJRrr1ERWm2AsXEs-108" target="0b40yJRrr1ERWm2AsXEs-105" edge="1">
          <mxGeometry relative="1" as="geometry" />
        </mxCell>
        <mxCell id="0b40yJRrr1ERWm2AsXEs-119" value="是" style="edgeLabel;html=1;align=center;verticalAlign=middle;resizable=0;points=[];fontSize=10;" parent="0b40yJRrr1ERWm2AsXEs-110" vertex="1" connectable="0">
          <mxGeometry x="-0.2154" y="1" relative="1" as="geometry">
            <mxPoint x="1" as="offset" />
          </mxGeometry>
        </mxCell>
        <mxCell id="0b40yJRrr1ERWm2AsXEs-142" style="edgeStyle=orthogonalEdgeStyle;rounded=0;orthogonalLoop=1;jettySize=auto;html=1;exitX=0.5;exitY=1;exitDx=0;exitDy=0;entryX=0;entryY=0.5;entryDx=0;entryDy=0;entryPerimeter=0;fontSize=10;" parent="1" source="0b40yJRrr1ERWm2AsXEs-108" target="0b40yJRrr1ERWm2AsXEs-141" edge="1">
          <mxGeometry relative="1" as="geometry" />
        </mxCell>
        <mxCell id="0b40yJRrr1ERWm2AsXEs-146" value="报名没有通过" style="edgeLabel;html=1;align=center;verticalAlign=middle;resizable=0;points=[];fontSize=10;" parent="0b40yJRrr1ERWm2AsXEs-142" vertex="1" connectable="0">
          <mxGeometry x="-0.2583" relative="1" as="geometry">
            <mxPoint as="offset" />
          </mxGeometry>
        </mxCell>
        <mxCell id="0b40yJRrr1ERWm2AsXEs-108" value="达人需要报名审核同&lt;br&gt;（同时也意味着商单执行中）" style="whiteSpace=wrap;html=1;fontSize=10;sketch=0;fillColor=#dae8fc;strokeColor=#6c8ebf;" parent="1" vertex="1">
          <mxGeometry x="1565" y="330" width="110" height="60" as="geometry" />
        </mxCell>
        <mxCell id="0b40yJRrr1ERWm2AsXEs-116" value="" style="edgeStyle=orthogonalEdgeStyle;rounded=0;orthogonalLoop=1;jettySize=auto;html=1;fontSize=10;exitX=1;exitY=0.5;exitDx=0;exitDy=0;" parent="1" source="0b40yJRrr1ERWm2AsXEs-129" target="0b40yJRrr1ERWm2AsXEs-115" edge="1">
          <mxGeometry relative="1" as="geometry">
            <mxPoint x="2080" y="360" as="sourcePoint" />
          </mxGeometry>
        </mxCell>
        <mxCell id="0b40yJRrr1ERWm2AsXEs-118" value="否" style="edgeLabel;html=1;align=center;verticalAlign=middle;resizable=0;points=[];fontSize=10;" parent="0b40yJRrr1ERWm2AsXEs-116" vertex="1" connectable="0">
          <mxGeometry x="-0.2833" y="-1" relative="1" as="geometry">
            <mxPoint as="offset" />
          </mxGeometry>
        </mxCell>
        <mxCell id="0b40yJRrr1ERWm2AsXEs-134" style="edgeStyle=orthogonalEdgeStyle;rounded=0;orthogonalLoop=1;jettySize=auto;html=1;exitX=0.5;exitY=1;exitDx=0;exitDy=0;entryX=1;entryY=0.5;entryDx=0;entryDy=0;entryPerimeter=0;fontSize=10;" parent="1" source="0b40yJRrr1ERWm2AsXEs-115" target="0b40yJRrr1ERWm2AsXEs-127" edge="1">
          <mxGeometry relative="1" as="geometry" />
        </mxCell>
        <mxCell id="0b40yJRrr1ERWm2AsXEs-135" value="&lt;span style=&quot;font-variant-ligatures: no-common-ligatures; background-color: rgb(248, 249, 250);&quot;&gt;否，没有小号或者小号没有加入执行群&lt;/span&gt;" style="edgeLabel;html=1;align=center;verticalAlign=middle;resizable=0;points=[];fontSize=10;" parent="0b40yJRrr1ERWm2AsXEs-134" vertex="1" connectable="0">
          <mxGeometry x="-0.563" y="2" relative="1" as="geometry">
            <mxPoint y="1" as="offset" />
          </mxGeometry>
        </mxCell>
        <mxCell id="0b40yJRrr1ERWm2AsXEs-139" style="edgeStyle=orthogonalEdgeStyle;rounded=0;orthogonalLoop=1;jettySize=auto;html=1;exitX=0.5;exitY=0;exitDx=0;exitDy=0;entryX=1;entryY=0.5;entryDx=0;entryDy=0;entryPerimeter=0;fontSize=10;" parent="1" source="0b40yJRrr1ERWm2AsXEs-115" target="0b40yJRrr1ERWm2AsXEs-126" edge="1">
          <mxGeometry relative="1" as="geometry" />
        </mxCell>
        <mxCell id="0b40yJRrr1ERWm2AsXEs-140" value="是" style="edgeLabel;html=1;align=center;verticalAlign=middle;resizable=0;points=[];fontSize=10;" parent="0b40yJRrr1ERWm2AsXEs-139" vertex="1" connectable="0">
          <mxGeometry x="0.1395" y="-1" relative="1" as="geometry">
            <mxPoint as="offset" />
          </mxGeometry>
        </mxCell>
        <mxCell id="0b40yJRrr1ERWm2AsXEs-115" value="机构端给达人绑定小号微信（商单维度）进入执行群里&lt;sup&gt;1&lt;/sup&gt;" style="whiteSpace=wrap;html=1;fontSize=10;sketch=0;fillColor=#e1d5e7;strokeColor=#9673a6;" parent="1" vertex="1">
          <mxGeometry x="2120" y="330" width="110" height="60" as="geometry" />
        </mxCell>
        <mxCell id="0b40yJRrr1ERWm2AsXEs-126" value="已加群" style="strokeWidth=2;html=1;shape=mxgraph.flowchart.terminator;whiteSpace=wrap;sketch=0;fontSize=10;fillColor=#d5e8d4;strokeColor=#82b366;" parent="1" vertex="1">
          <mxGeometry x="1940" y="220" width="100" height="60" as="geometry" />
        </mxCell>
        <mxCell id="0b40yJRrr1ERWm2AsXEs-127" value="未加群" style="strokeWidth=2;html=1;shape=mxgraph.flowchart.terminator;whiteSpace=wrap;sketch=0;fontSize=10;fillColor=#d5e8d4;strokeColor=#82b366;" parent="1" vertex="1">
          <mxGeometry x="2030" y="450" width="100" height="60" as="geometry" />
        </mxCell>
        <mxCell id="0b40yJRrr1ERWm2AsXEs-130" style="edgeStyle=orthogonalEdgeStyle;rounded=0;orthogonalLoop=1;jettySize=auto;html=1;exitX=0.5;exitY=0;exitDx=0;exitDy=0;fontSize=10;" parent="1" source="0b40yJRrr1ERWm2AsXEs-129" target="0b40yJRrr1ERWm2AsXEs-126" edge="1">
          <mxGeometry relative="1" as="geometry" />
        </mxCell>
        <mxCell id="0b40yJRrr1ERWm2AsXEs-132" value="是" style="edgeLabel;html=1;align=center;verticalAlign=middle;resizable=0;points=[];fontSize=10;" parent="0b40yJRrr1ERWm2AsXEs-130" vertex="1" connectable="0">
          <mxGeometry x="0.1" y="-1" relative="1" as="geometry">
            <mxPoint x="1" y="1" as="offset" />
          </mxGeometry>
        </mxCell>
        <mxCell id="0b40yJRrr1ERWm2AsXEs-129" value="&lt;span style=&quot;font-size: 10px;&quot;&gt;达人绑定的微信是否在微信群里1&lt;/span&gt;" style="whiteSpace=wrap;html=1;fontSize=10;sketch=0;fillColor=#e1d5e7;strokeColor=#9673a6;" parent="1" vertex="1">
          <mxGeometry x="1930" y="330" width="120" height="60" as="geometry" />
        </mxCell>
        <mxCell id="0b40yJRrr1ERWm2AsXEs-141" value="不能加群&lt;br&gt;（未合作）" style="strokeWidth=2;html=1;shape=mxgraph.flowchart.terminator;whiteSpace=wrap;sketch=0;fontSize=10;fillColor=#d5e8d4;strokeColor=#82b366;" parent="1" vertex="1">
          <mxGeometry x="1650" y="450" width="100" height="60" as="geometry" />
        </mxCell>
        <mxCell id="0b40yJRrr1ERWm2AsXEs-145" value="&lt;ol&gt;&lt;li style=&quot;box-sizing: content-box; margin: 0px; padding: 0px; -webkit-font-smoothing: antialiased; -webkit-tap-highlight-color: rgba(0, 0, 0, 0);&quot;&gt;先去combcenter拿到已加群的用户信息，然后和koc绑定的微信比对，最后继续用koc这边设置的小号比对&lt;/li&gt;&lt;/ol&gt;" style="rounded=1;whiteSpace=wrap;html=1;sketch=0;fontSize=10;align=left;fillColor=#fff2cc;strokeColor=#d6b656;" parent="1" vertex="1">
          <mxGeometry x="1670" y="140" width="270" height="60" as="geometry" />
        </mxCell>
        <mxCell id="0b40yJRrr1ERWm2AsXEs-154" value="" style="rounded=0;whiteSpace=wrap;html=1;sketch=0;fontSize=10;fillColor=#dae8fc;strokeColor=#6c8ebf;opacity=30;" parent="1" vertex="1">
          <mxGeometry x="1530" y="300" width="340" height="230" as="geometry" />
        </mxCell>
        <mxCell id="0b40yJRrr1ERWm2AsXEs-155" value="查询可加群达人" style="text;html=1;strokeColor=#6c8ebf;fillColor=#dae8fc;align=center;verticalAlign=middle;whiteSpace=wrap;rounded=0;sketch=0;fontSize=10;" parent="1" vertex="1">
          <mxGeometry x="1810" y="500" width="60" height="30" as="geometry" />
        </mxCell>
        <mxCell id="0b40yJRrr1ERWm2AsXEs-156" value="" style="rounded=0;whiteSpace=wrap;html=1;sketch=0;fontSize=10;fillColor=#e1d5e7;strokeColor=#9673a6;opacity=30;" parent="1" vertex="1">
          <mxGeometry x="1910" y="210" width="340" height="320" as="geometry" />
        </mxCell>
        <mxCell id="0b40yJRrr1ERWm2AsXEs-157" value="是否已加群规则" style="text;html=1;strokeColor=#9673a6;fillColor=#e1d5e7;align=center;verticalAlign=middle;whiteSpace=wrap;rounded=0;sketch=0;fontSize=10;" parent="1" vertex="1">
          <mxGeometry x="2190" y="500" width="60" height="30" as="geometry" />
        </mxCell>
        <mxCell id="wpq-IQUE76vI2y_NqtaI-2" value="koc_task" style="shape=table;startSize=30;container=1;collapsible=1;childLayout=tableLayout;fixedRows=1;rowLines=0;fontStyle=1;align=center;resizeLast=1;" vertex="1" parent="1">
          <mxGeometry x="1510" y="640" width="180" height="60" as="geometry" />
        </mxCell>
        <mxCell id="wpq-IQUE76vI2y_NqtaI-3" value="" style="shape=tableRow;horizontal=0;startSize=0;swimlaneHead=0;swimlaneBody=0;fillColor=none;collapsible=0;dropTarget=0;points=[[0,0.5],[1,0.5]];portConstraint=eastwest;top=0;left=0;right=0;bottom=1;" vertex="1" parent="wpq-IQUE76vI2y_NqtaI-2">
          <mxGeometry y="30" width="180" height="30" as="geometry" />
        </mxCell>
        <mxCell id="wpq-IQUE76vI2y_NqtaI-4" value="PK" style="shape=partialRectangle;connectable=0;fillColor=none;top=0;left=0;bottom=0;right=0;fontStyle=1;overflow=hidden;" vertex="1" parent="wpq-IQUE76vI2y_NqtaI-3">
          <mxGeometry width="30" height="30" as="geometry">
            <mxRectangle width="30" height="30" as="alternateBounds" />
          </mxGeometry>
        </mxCell>
        <mxCell id="wpq-IQUE76vI2y_NqtaI-5" value="id" style="shape=partialRectangle;connectable=0;fillColor=none;top=0;left=0;bottom=0;right=0;align=left;spacingLeft=6;fontStyle=5;overflow=hidden;" vertex="1" parent="wpq-IQUE76vI2y_NqtaI-3">
          <mxGeometry x="30" width="150" height="30" as="geometry">
            <mxRectangle width="150" height="30" as="alternateBounds" />
          </mxGeometry>
        </mxCell>
        <mxCell id="wpq-IQUE76vI2y_NqtaI-16" value="koc.task_chat_rel" style="shape=table;startSize=30;container=1;collapsible=1;childLayout=tableLayout;fixedRows=1;rowLines=0;fontStyle=1;align=center;resizeLast=1;fillColor=#d5e8d4;strokeColor=#82b366;" vertex="1" parent="1">
          <mxGeometry x="1780" y="610" width="180" height="120" as="geometry" />
        </mxCell>
        <mxCell id="wpq-IQUE76vI2y_NqtaI-17" value="" style="shape=tableRow;horizontal=0;startSize=0;swimlaneHead=0;swimlaneBody=0;fillColor=none;collapsible=0;dropTarget=0;points=[[0,0.5],[1,0.5]];portConstraint=eastwest;top=0;left=0;right=0;bottom=1;" vertex="1" parent="wpq-IQUE76vI2y_NqtaI-16">
          <mxGeometry y="30" width="180" height="30" as="geometry" />
        </mxCell>
        <mxCell id="wpq-IQUE76vI2y_NqtaI-18" value="PK" style="shape=partialRectangle;connectable=0;fillColor=none;top=0;left=0;bottom=0;right=0;fontStyle=1;overflow=hidden;" vertex="1" parent="wpq-IQUE76vI2y_NqtaI-17">
          <mxGeometry width="30" height="30" as="geometry">
            <mxRectangle width="30" height="30" as="alternateBounds" />
          </mxGeometry>
        </mxCell>
        <mxCell id="wpq-IQUE76vI2y_NqtaI-19" value="id" style="shape=partialRectangle;connectable=0;fillColor=none;top=0;left=0;bottom=0;right=0;align=left;spacingLeft=6;fontStyle=5;overflow=hidden;" vertex="1" parent="wpq-IQUE76vI2y_NqtaI-17">
          <mxGeometry x="30" width="150" height="30" as="geometry">
            <mxRectangle width="150" height="30" as="alternateBounds" />
          </mxGeometry>
        </mxCell>
        <mxCell id="wpq-IQUE76vI2y_NqtaI-20" value="" style="shape=tableRow;horizontal=0;startSize=0;swimlaneHead=0;swimlaneBody=0;fillColor=none;collapsible=0;dropTarget=0;points=[[0,0.5],[1,0.5]];portConstraint=eastwest;top=0;left=0;right=0;bottom=0;" vertex="1" parent="wpq-IQUE76vI2y_NqtaI-16">
          <mxGeometry y="60" width="180" height="30" as="geometry" />
        </mxCell>
        <mxCell id="wpq-IQUE76vI2y_NqtaI-21" value="UK1" style="shape=partialRectangle;connectable=0;fillColor=none;top=0;left=0;bottom=0;right=0;editable=1;overflow=hidden;" vertex="1" parent="wpq-IQUE76vI2y_NqtaI-20">
          <mxGeometry width="30" height="30" as="geometry">
            <mxRectangle width="30" height="30" as="alternateBounds" />
          </mxGeometry>
        </mxCell>
        <mxCell id="wpq-IQUE76vI2y_NqtaI-22" value="task_id" style="shape=partialRectangle;connectable=0;fillColor=none;top=0;left=0;bottom=0;right=0;align=left;spacingLeft=6;overflow=hidden;" vertex="1" parent="wpq-IQUE76vI2y_NqtaI-20">
          <mxGeometry x="30" width="150" height="30" as="geometry">
            <mxRectangle width="150" height="30" as="alternateBounds" />
          </mxGeometry>
        </mxCell>
        <mxCell id="wpq-IQUE76vI2y_NqtaI-23" value="" style="shape=tableRow;horizontal=0;startSize=0;swimlaneHead=0;swimlaneBody=0;fillColor=none;collapsible=0;dropTarget=0;points=[[0,0.5],[1,0.5]];portConstraint=eastwest;top=0;left=0;right=0;bottom=0;" vertex="1" parent="wpq-IQUE76vI2y_NqtaI-16">
          <mxGeometry y="90" width="180" height="30" as="geometry" />
        </mxCell>
        <mxCell id="wpq-IQUE76vI2y_NqtaI-24" value="UK1" style="shape=partialRectangle;connectable=0;fillColor=none;top=0;left=0;bottom=0;right=0;editable=1;overflow=hidden;" vertex="1" parent="wpq-IQUE76vI2y_NqtaI-23">
          <mxGeometry width="30" height="30" as="geometry">
            <mxRectangle width="30" height="30" as="alternateBounds" />
          </mxGeometry>
        </mxCell>
        <mxCell id="wpq-IQUE76vI2y_NqtaI-25" value="chat_group_id" style="shape=partialRectangle;connectable=0;fillColor=none;top=0;left=0;bottom=0;right=0;align=left;spacingLeft=6;overflow=hidden;" vertex="1" parent="wpq-IQUE76vI2y_NqtaI-23">
          <mxGeometry x="30" width="150" height="30" as="geometry">
            <mxRectangle width="150" height="30" as="alternateBounds" />
          </mxGeometry>
        </mxCell>
        <mxCell id="wpq-IQUE76vI2y_NqtaI-29" value="" style="edgeStyle=entityRelationEdgeStyle;fontSize=12;html=1;endArrow=ERoneToMany;startArrow=ERzeroToOne;rounded=0;exitX=1;exitY=0.5;exitDx=0;exitDy=0;entryX=0;entryY=0.5;entryDx=0;entryDy=0;" edge="1" parent="1" source="wpq-IQUE76vI2y_NqtaI-3" target="wpq-IQUE76vI2y_NqtaI-20">
          <mxGeometry width="100" height="100" relative="1" as="geometry">
            <mxPoint x="1970" y="590" as="sourcePoint" />
            <mxPoint x="2070" y="490" as="targetPoint" />
          </mxGeometry>
        </mxCell>
        <mxCell id="wpq-IQUE76vI2y_NqtaI-30" value="koc.koc_chat_group_rel" style="shape=table;startSize=20;container=1;collapsible=1;childLayout=tableLayout;fixedRows=1;rowLines=0;fontStyle=1;align=center;resizeLast=1;fillColor=#d5e8d4;strokeColor=#82b366;" vertex="1" parent="1">
          <mxGeometry x="2060" y="610" width="180" height="135" as="geometry" />
        </mxCell>
        <mxCell id="wpq-IQUE76vI2y_NqtaI-31" value="" style="shape=tableRow;horizontal=0;startSize=0;swimlaneHead=0;swimlaneBody=0;fillColor=none;collapsible=0;dropTarget=0;points=[[0,0.5],[1,0.5]];portConstraint=eastwest;top=0;left=0;right=0;bottom=1;" vertex="1" parent="wpq-IQUE76vI2y_NqtaI-30">
          <mxGeometry y="20" width="180" height="30" as="geometry" />
        </mxCell>
        <mxCell id="wpq-IQUE76vI2y_NqtaI-32" value="PK" style="shape=partialRectangle;connectable=0;fillColor=none;top=0;left=0;bottom=0;right=0;fontStyle=1;overflow=hidden;" vertex="1" parent="wpq-IQUE76vI2y_NqtaI-31">
          <mxGeometry width="30" height="30" as="geometry">
            <mxRectangle width="30" height="30" as="alternateBounds" />
          </mxGeometry>
        </mxCell>
        <mxCell id="wpq-IQUE76vI2y_NqtaI-33" value="id" style="shape=partialRectangle;connectable=0;fillColor=none;top=0;left=0;bottom=0;right=0;align=left;spacingLeft=6;fontStyle=5;overflow=hidden;" vertex="1" parent="wpq-IQUE76vI2y_NqtaI-31">
          <mxGeometry x="30" width="150" height="30" as="geometry">
            <mxRectangle width="150" height="30" as="alternateBounds" />
          </mxGeometry>
        </mxCell>
        <mxCell id="wpq-IQUE76vI2y_NqtaI-34" value="" style="shape=tableRow;horizontal=0;startSize=0;swimlaneHead=0;swimlaneBody=0;fillColor=none;collapsible=0;dropTarget=0;points=[[0,0.5],[1,0.5]];portConstraint=eastwest;top=0;left=0;right=0;bottom=0;" vertex="1" parent="wpq-IQUE76vI2y_NqtaI-30">
          <mxGeometry y="50" width="180" height="30" as="geometry" />
        </mxCell>
        <mxCell id="wpq-IQUE76vI2y_NqtaI-35" value="UK1" style="shape=partialRectangle;connectable=0;fillColor=none;top=0;left=0;bottom=0;right=0;editable=1;overflow=hidden;" vertex="1" parent="wpq-IQUE76vI2y_NqtaI-34">
          <mxGeometry width="30" height="30" as="geometry">
            <mxRectangle width="30" height="30" as="alternateBounds" />
          </mxGeometry>
        </mxCell>
        <mxCell id="wpq-IQUE76vI2y_NqtaI-36" value="task_id" style="shape=partialRectangle;connectable=0;fillColor=none;top=0;left=0;bottom=0;right=0;align=left;spacingLeft=6;overflow=hidden;" vertex="1" parent="wpq-IQUE76vI2y_NqtaI-34">
          <mxGeometry x="30" width="150" height="30" as="geometry">
            <mxRectangle width="150" height="30" as="alternateBounds" />
          </mxGeometry>
        </mxCell>
        <mxCell id="wpq-IQUE76vI2y_NqtaI-37" value="" style="shape=tableRow;horizontal=0;startSize=0;swimlaneHead=0;swimlaneBody=0;fillColor=none;collapsible=0;dropTarget=0;points=[[0,0.5],[1,0.5]];portConstraint=eastwest;top=0;left=0;right=0;bottom=0;" vertex="1" parent="wpq-IQUE76vI2y_NqtaI-30">
          <mxGeometry y="80" width="180" height="30" as="geometry" />
        </mxCell>
        <mxCell id="wpq-IQUE76vI2y_NqtaI-38" value="UK1" style="shape=partialRectangle;connectable=0;fillColor=none;top=0;left=0;bottom=0;right=0;editable=1;overflow=hidden;" vertex="1" parent="wpq-IQUE76vI2y_NqtaI-37">
          <mxGeometry width="30" height="30" as="geometry">
            <mxRectangle width="30" height="30" as="alternateBounds" />
          </mxGeometry>
        </mxCell>
        <mxCell id="wpq-IQUE76vI2y_NqtaI-39" value="chat_group_id" style="shape=partialRectangle;connectable=0;fillColor=none;top=0;left=0;bottom=0;right=0;align=left;spacingLeft=6;overflow=hidden;" vertex="1" parent="wpq-IQUE76vI2y_NqtaI-37">
          <mxGeometry x="30" width="150" height="30" as="geometry">
            <mxRectangle width="150" height="30" as="alternateBounds" />
          </mxGeometry>
        </mxCell>
        <mxCell id="wpq-IQUE76vI2y_NqtaI-46" value="" style="shape=tableRow;horizontal=0;startSize=0;swimlaneHead=0;swimlaneBody=0;fillColor=none;collapsible=0;dropTarget=0;points=[[0,0.5],[1,0.5]];portConstraint=eastwest;top=0;left=0;right=0;bottom=0;" vertex="1" parent="wpq-IQUE76vI2y_NqtaI-30">
          <mxGeometry y="110" width="180" height="20" as="geometry" />
        </mxCell>
        <mxCell id="wpq-IQUE76vI2y_NqtaI-47" value="UK1" style="shape=partialRectangle;connectable=0;fillColor=none;top=0;left=0;bottom=0;right=0;editable=1;overflow=hidden;" vertex="1" parent="wpq-IQUE76vI2y_NqtaI-46">
          <mxGeometry width="30" height="20" as="geometry">
            <mxRectangle width="30" height="20" as="alternateBounds" />
          </mxGeometry>
        </mxCell>
        <mxCell id="wpq-IQUE76vI2y_NqtaI-48" value="koc_id" style="shape=partialRectangle;connectable=0;fillColor=none;top=0;left=0;bottom=0;right=0;align=left;spacingLeft=6;overflow=hidden;" vertex="1" parent="wpq-IQUE76vI2y_NqtaI-46">
          <mxGeometry x="30" width="150" height="20" as="geometry">
            <mxRectangle width="150" height="20" as="alternateBounds" />
          </mxGeometry>
        </mxCell>
        <mxCell id="wpq-IQUE76vI2y_NqtaI-40" value="商单执行群" style="rounded=1;whiteSpace=wrap;html=1;sketch=0;fontSize=10;align=left;fillColor=#fff2cc;strokeColor=#d6b656;" vertex="1" parent="1">
          <mxGeometry x="1835" y="585" width="70" height="20" as="geometry" />
        </mxCell>
        <mxCell id="wpq-IQUE76vI2y_NqtaI-41" value="指定达人进群" style="rounded=1;whiteSpace=wrap;html=1;sketch=0;fontSize=10;align=left;fillColor=#fff2cc;strokeColor=#d6b656;" vertex="1" parent="1">
          <mxGeometry x="2115" y="585" width="75" height="20" as="geometry" />
        </mxCell>
        <mxCell id="wpq-IQUE76vI2y_NqtaI-51" value="" style="edgeStyle=entityRelationEdgeStyle;fontSize=12;html=1;endArrow=ERoneToMany;startArrow=ERzeroToOne;rounded=0;exitX=1;exitY=0.5;exitDx=0;exitDy=0;entryX=0;entryY=0.5;entryDx=0;entryDy=0;" edge="1" parent="1" source="wpq-IQUE76vI2y_NqtaI-23" target="wpq-IQUE76vI2y_NqtaI-37">
          <mxGeometry width="100" height="100" relative="1" as="geometry">
            <mxPoint x="1970" y="750" as="sourcePoint" />
            <mxPoint x="2070" y="650" as="targetPoint" />
          </mxGeometry>
        </mxCell>
        <mxCell id="wpq-IQUE76vI2y_NqtaI-52" value="koc.platform_chat_rel" style="shape=table;startSize=20;container=1;collapsible=1;childLayout=tableLayout;fixedRows=1;rowLines=0;fontStyle=1;align=center;resizeLast=1;fillColor=#d5e8d4;strokeColor=#82b366;" vertex="1" parent="1">
          <mxGeometry x="2060" y="800" width="180" height="135" as="geometry" />
        </mxCell>
        <mxCell id="wpq-IQUE76vI2y_NqtaI-53" value="" style="shape=tableRow;horizontal=0;startSize=0;swimlaneHead=0;swimlaneBody=0;fillColor=none;collapsible=0;dropTarget=0;points=[[0,0.5],[1,0.5]];portConstraint=eastwest;top=0;left=0;right=0;bottom=1;" vertex="1" parent="wpq-IQUE76vI2y_NqtaI-52">
          <mxGeometry y="20" width="180" height="30" as="geometry" />
        </mxCell>
        <mxCell id="wpq-IQUE76vI2y_NqtaI-54" value="PK" style="shape=partialRectangle;connectable=0;fillColor=none;top=0;left=0;bottom=0;right=0;fontStyle=1;overflow=hidden;" vertex="1" parent="wpq-IQUE76vI2y_NqtaI-53">
          <mxGeometry width="30" height="30" as="geometry">
            <mxRectangle width="30" height="30" as="alternateBounds" />
          </mxGeometry>
        </mxCell>
        <mxCell id="wpq-IQUE76vI2y_NqtaI-55" value="id" style="shape=partialRectangle;connectable=0;fillColor=none;top=0;left=0;bottom=0;right=0;align=left;spacingLeft=6;fontStyle=5;overflow=hidden;" vertex="1" parent="wpq-IQUE76vI2y_NqtaI-53">
          <mxGeometry x="30" width="150" height="30" as="geometry">
            <mxRectangle width="150" height="30" as="alternateBounds" />
          </mxGeometry>
        </mxCell>
        <mxCell id="wpq-IQUE76vI2y_NqtaI-56" value="" style="shape=tableRow;horizontal=0;startSize=0;swimlaneHead=0;swimlaneBody=0;fillColor=none;collapsible=0;dropTarget=0;points=[[0,0.5],[1,0.5]];portConstraint=eastwest;top=0;left=0;right=0;bottom=0;" vertex="1" parent="wpq-IQUE76vI2y_NqtaI-52">
          <mxGeometry y="50" width="180" height="30" as="geometry" />
        </mxCell>
        <mxCell id="wpq-IQUE76vI2y_NqtaI-57" value="UK1" style="shape=partialRectangle;connectable=0;fillColor=none;top=0;left=0;bottom=0;right=0;editable=1;overflow=hidden;" vertex="1" parent="wpq-IQUE76vI2y_NqtaI-56">
          <mxGeometry width="30" height="30" as="geometry">
            <mxRectangle width="30" height="30" as="alternateBounds" />
          </mxGeometry>
        </mxCell>
        <mxCell id="wpq-IQUE76vI2y_NqtaI-58" value="task_id" style="shape=partialRectangle;connectable=0;fillColor=none;top=0;left=0;bottom=0;right=0;align=left;spacingLeft=6;overflow=hidden;" vertex="1" parent="wpq-IQUE76vI2y_NqtaI-56">
          <mxGeometry x="30" width="150" height="30" as="geometry">
            <mxRectangle width="150" height="30" as="alternateBounds" />
          </mxGeometry>
        </mxCell>
        <mxCell id="wpq-IQUE76vI2y_NqtaI-59" value="" style="shape=tableRow;horizontal=0;startSize=0;swimlaneHead=0;swimlaneBody=0;fillColor=none;collapsible=0;dropTarget=0;points=[[0,0.5],[1,0.5]];portConstraint=eastwest;top=0;left=0;right=0;bottom=0;" vertex="1" parent="wpq-IQUE76vI2y_NqtaI-52">
          <mxGeometry y="80" width="180" height="30" as="geometry" />
        </mxCell>
        <mxCell id="wpq-IQUE76vI2y_NqtaI-60" value="UK1" style="shape=partialRectangle;connectable=0;fillColor=none;top=0;left=0;bottom=0;right=0;editable=1;overflow=hidden;" vertex="1" parent="wpq-IQUE76vI2y_NqtaI-59">
          <mxGeometry width="30" height="30" as="geometry">
            <mxRectangle width="30" height="30" as="alternateBounds" />
          </mxGeometry>
        </mxCell>
        <mxCell id="wpq-IQUE76vI2y_NqtaI-61" value="chat_group_id" style="shape=partialRectangle;connectable=0;fillColor=none;top=0;left=0;bottom=0;right=0;align=left;spacingLeft=6;overflow=hidden;" vertex="1" parent="wpq-IQUE76vI2y_NqtaI-59">
          <mxGeometry x="30" width="150" height="30" as="geometry">
            <mxRectangle width="150" height="30" as="alternateBounds" />
          </mxGeometry>
        </mxCell>
        <mxCell id="wpq-IQUE76vI2y_NqtaI-62" value="" style="shape=tableRow;horizontal=0;startSize=0;swimlaneHead=0;swimlaneBody=0;fillColor=none;collapsible=0;dropTarget=0;points=[[0,0.5],[1,0.5]];portConstraint=eastwest;top=0;left=0;right=0;bottom=0;" vertex="1" parent="wpq-IQUE76vI2y_NqtaI-52">
          <mxGeometry y="110" width="180" height="20" as="geometry" />
        </mxCell>
        <mxCell id="wpq-IQUE76vI2y_NqtaI-63" value="UK1" style="shape=partialRectangle;connectable=0;fillColor=none;top=0;left=0;bottom=0;right=0;editable=1;overflow=hidden;" vertex="1" parent="wpq-IQUE76vI2y_NqtaI-62">
          <mxGeometry width="30" height="20" as="geometry">
            <mxRectangle width="30" height="20" as="alternateBounds" />
          </mxGeometry>
        </mxCell>
        <mxCell id="wpq-IQUE76vI2y_NqtaI-64" value="koc_id" style="shape=partialRectangle;connectable=0;fillColor=none;top=0;left=0;bottom=0;right=0;align=left;spacingLeft=6;overflow=hidden;" vertex="1" parent="wpq-IQUE76vI2y_NqtaI-62">
          <mxGeometry x="30" width="150" height="20" as="geometry">
            <mxRectangle width="150" height="20" as="alternateBounds" />
          </mxGeometry>
        </mxCell>
        <mxCell id="wpq-IQUE76vI2y_NqtaI-66" value="达人小号" style="rounded=1;whiteSpace=wrap;html=1;sketch=0;fontSize=10;align=left;fillColor=#fff2cc;strokeColor=#d6b656;" vertex="1" parent="1">
          <mxGeometry x="2110" y="770" width="75" height="20" as="geometry" />
        </mxCell>
        <mxCell id="wpq-IQUE76vI2y_NqtaI-67" value="" style="edgeStyle=entityRelationEdgeStyle;fontSize=12;html=1;endArrow=ERoneToMany;startArrow=ERzeroToOne;rounded=0;entryX=0;entryY=0.5;entryDx=0;entryDy=0;" edge="1" parent="1" target="wpq-IQUE76vI2y_NqtaI-59">
          <mxGeometry width="100" height="100" relative="1" as="geometry">
            <mxPoint x="1930" y="730" as="sourcePoint" />
            <mxPoint x="2070" y="715" as="targetPoint" />
          </mxGeometry>
        </mxCell>
        <mxCell id="wpq-IQUE76vI2y_NqtaI-68" value="koc.task_customer_chat_rel" style="shape=table;startSize=30;container=1;collapsible=1;childLayout=tableLayout;fixedRows=1;rowLines=0;fontStyle=1;align=center;resizeLast=1;fillColor=#d5e8d4;strokeColor=#82b366;" vertex="1" parent="1">
          <mxGeometry x="1260" y="610" width="180" height="120" as="geometry" />
        </mxCell>
        <mxCell id="wpq-IQUE76vI2y_NqtaI-69" value="" style="shape=tableRow;horizontal=0;startSize=0;swimlaneHead=0;swimlaneBody=0;fillColor=none;collapsible=0;dropTarget=0;points=[[0,0.5],[1,0.5]];portConstraint=eastwest;top=0;left=0;right=0;bottom=1;" vertex="1" parent="wpq-IQUE76vI2y_NqtaI-68">
          <mxGeometry y="30" width="180" height="30" as="geometry" />
        </mxCell>
        <mxCell id="wpq-IQUE76vI2y_NqtaI-70" value="PK" style="shape=partialRectangle;connectable=0;fillColor=none;top=0;left=0;bottom=0;right=0;fontStyle=1;overflow=hidden;" vertex="1" parent="wpq-IQUE76vI2y_NqtaI-69">
          <mxGeometry width="30" height="30" as="geometry">
            <mxRectangle width="30" height="30" as="alternateBounds" />
          </mxGeometry>
        </mxCell>
        <mxCell id="wpq-IQUE76vI2y_NqtaI-71" value="id" style="shape=partialRectangle;connectable=0;fillColor=none;top=0;left=0;bottom=0;right=0;align=left;spacingLeft=6;fontStyle=5;overflow=hidden;" vertex="1" parent="wpq-IQUE76vI2y_NqtaI-69">
          <mxGeometry x="30" width="150" height="30" as="geometry">
            <mxRectangle width="150" height="30" as="alternateBounds" />
          </mxGeometry>
        </mxCell>
        <mxCell id="wpq-IQUE76vI2y_NqtaI-72" value="" style="shape=tableRow;horizontal=0;startSize=0;swimlaneHead=0;swimlaneBody=0;fillColor=none;collapsible=0;dropTarget=0;points=[[0,0.5],[1,0.5]];portConstraint=eastwest;top=0;left=0;right=0;bottom=0;" vertex="1" parent="wpq-IQUE76vI2y_NqtaI-68">
          <mxGeometry y="60" width="180" height="30" as="geometry" />
        </mxCell>
        <mxCell id="wpq-IQUE76vI2y_NqtaI-73" value="UK1" style="shape=partialRectangle;connectable=0;fillColor=none;top=0;left=0;bottom=0;right=0;editable=1;overflow=hidden;" vertex="1" parent="wpq-IQUE76vI2y_NqtaI-72">
          <mxGeometry width="30" height="30" as="geometry">
            <mxRectangle width="30" height="30" as="alternateBounds" />
          </mxGeometry>
        </mxCell>
        <mxCell id="wpq-IQUE76vI2y_NqtaI-74" value="task_id" style="shape=partialRectangle;connectable=0;fillColor=none;top=0;left=0;bottom=0;right=0;align=left;spacingLeft=6;overflow=hidden;" vertex="1" parent="wpq-IQUE76vI2y_NqtaI-72">
          <mxGeometry x="30" width="150" height="30" as="geometry">
            <mxRectangle width="150" height="30" as="alternateBounds" />
          </mxGeometry>
        </mxCell>
        <mxCell id="wpq-IQUE76vI2y_NqtaI-75" value="" style="shape=tableRow;horizontal=0;startSize=0;swimlaneHead=0;swimlaneBody=0;fillColor=none;collapsible=0;dropTarget=0;points=[[0,0.5],[1,0.5]];portConstraint=eastwest;top=0;left=0;right=0;bottom=0;" vertex="1" parent="wpq-IQUE76vI2y_NqtaI-68">
          <mxGeometry y="90" width="180" height="30" as="geometry" />
        </mxCell>
        <mxCell id="wpq-IQUE76vI2y_NqtaI-76" value="UK1" style="shape=partialRectangle;connectable=0;fillColor=none;top=0;left=0;bottom=0;right=0;editable=1;overflow=hidden;" vertex="1" parent="wpq-IQUE76vI2y_NqtaI-75">
          <mxGeometry width="30" height="30" as="geometry">
            <mxRectangle width="30" height="30" as="alternateBounds" />
          </mxGeometry>
        </mxCell>
        <mxCell id="wpq-IQUE76vI2y_NqtaI-77" value="chat_group_id" style="shape=partialRectangle;connectable=0;fillColor=none;top=0;left=0;bottom=0;right=0;align=left;spacingLeft=6;overflow=hidden;" vertex="1" parent="wpq-IQUE76vI2y_NqtaI-75">
          <mxGeometry x="30" width="150" height="30" as="geometry">
            <mxRectangle width="150" height="30" as="alternateBounds" />
          </mxGeometry>
        </mxCell>
        <mxCell id="wpq-IQUE76vI2y_NqtaI-78" value="商单" style="rounded=1;whiteSpace=wrap;html=1;sketch=0;fontSize=10;align=left;fillColor=#fff2cc;strokeColor=#d6b656;" vertex="1" parent="1">
          <mxGeometry x="1560" y="610" width="70" height="20" as="geometry" />
        </mxCell>
        <mxCell id="wpq-IQUE76vI2y_NqtaI-79" value="商单客户群" style="rounded=1;whiteSpace=wrap;html=1;sketch=0;fontSize=10;align=left;fillColor=#fff2cc;strokeColor=#d6b656;" vertex="1" parent="1">
          <mxGeometry x="1315" y="585" width="70" height="20" as="geometry" />
        </mxCell>
        <mxCell id="wpq-IQUE76vI2y_NqtaI-80" value="" style="edgeStyle=entityRelationEdgeStyle;fontSize=12;html=1;endArrow=ERoneToMany;startArrow=ERzeroToOne;rounded=0;exitX=0;exitY=0.5;exitDx=0;exitDy=0;entryX=1;entryY=0.5;entryDx=0;entryDy=0;" edge="1" parent="1" source="wpq-IQUE76vI2y_NqtaI-3" target="wpq-IQUE76vI2y_NqtaI-72">
          <mxGeometry width="100" height="100" relative="1" as="geometry">
            <mxPoint x="1700" y="695" as="sourcePoint" />
            <mxPoint x="1790" y="695" as="targetPoint" />
          </mxGeometry>
        </mxCell>
        <mxCell id="wpq-IQUE76vI2y_NqtaI-81" value="combcenter.work_chat_group" style="shape=table;startSize=30;container=1;collapsible=1;childLayout=tableLayout;fixedRows=1;rowLines=0;fontStyle=1;align=center;resizeLast=1;" vertex="1" parent="1">
          <mxGeometry x="1410" y="860" width="180" height="150" as="geometry" />
        </mxCell>
        <mxCell id="wpq-IQUE76vI2y_NqtaI-82" value="" style="shape=tableRow;horizontal=0;startSize=0;swimlaneHead=0;swimlaneBody=0;fillColor=none;collapsible=0;dropTarget=0;points=[[0,0.5],[1,0.5]];portConstraint=eastwest;top=0;left=0;right=0;bottom=1;" vertex="1" parent="wpq-IQUE76vI2y_NqtaI-81">
          <mxGeometry y="30" width="180" height="30" as="geometry" />
        </mxCell>
        <mxCell id="wpq-IQUE76vI2y_NqtaI-83" value="PK" style="shape=partialRectangle;connectable=0;fillColor=none;top=0;left=0;bottom=0;right=0;fontStyle=1;overflow=hidden;" vertex="1" parent="wpq-IQUE76vI2y_NqtaI-82">
          <mxGeometry width="30" height="30" as="geometry">
            <mxRectangle width="30" height="30" as="alternateBounds" />
          </mxGeometry>
        </mxCell>
        <mxCell id="wpq-IQUE76vI2y_NqtaI-84" value="id" style="shape=partialRectangle;connectable=0;fillColor=none;top=0;left=0;bottom=0;right=0;align=left;spacingLeft=6;fontStyle=5;overflow=hidden;" vertex="1" parent="wpq-IQUE76vI2y_NqtaI-82">
          <mxGeometry x="30" width="150" height="30" as="geometry">
            <mxRectangle width="150" height="30" as="alternateBounds" />
          </mxGeometry>
        </mxCell>
        <mxCell id="wpq-IQUE76vI2y_NqtaI-85" value="" style="shape=tableRow;horizontal=0;startSize=0;swimlaneHead=0;swimlaneBody=0;fillColor=none;collapsible=0;dropTarget=0;points=[[0,0.5],[1,0.5]];portConstraint=eastwest;top=0;left=0;right=0;bottom=0;" vertex="1" parent="wpq-IQUE76vI2y_NqtaI-81">
          <mxGeometry y="60" width="180" height="30" as="geometry" />
        </mxCell>
        <mxCell id="wpq-IQUE76vI2y_NqtaI-86" value="UK1" style="shape=partialRectangle;connectable=0;fillColor=none;top=0;left=0;bottom=0;right=0;editable=1;overflow=hidden;" vertex="1" parent="wpq-IQUE76vI2y_NqtaI-85">
          <mxGeometry width="30" height="30" as="geometry">
            <mxRectangle width="30" height="30" as="alternateBounds" />
          </mxGeometry>
        </mxCell>
        <mxCell id="wpq-IQUE76vI2y_NqtaI-87" value="business_type" style="shape=partialRectangle;connectable=0;fillColor=none;top=0;left=0;bottom=0;right=0;align=left;spacingLeft=6;overflow=hidden;" vertex="1" parent="wpq-IQUE76vI2y_NqtaI-85">
          <mxGeometry x="30" width="150" height="30" as="geometry">
            <mxRectangle width="150" height="30" as="alternateBounds" />
          </mxGeometry>
        </mxCell>
        <mxCell id="wpq-IQUE76vI2y_NqtaI-88" value="" style="shape=tableRow;horizontal=0;startSize=0;swimlaneHead=0;swimlaneBody=0;fillColor=none;collapsible=0;dropTarget=0;points=[[0,0.5],[1,0.5]];portConstraint=eastwest;top=0;left=0;right=0;bottom=0;" vertex="1" parent="wpq-IQUE76vI2y_NqtaI-81">
          <mxGeometry y="90" width="180" height="30" as="geometry" />
        </mxCell>
        <mxCell id="wpq-IQUE76vI2y_NqtaI-89" value="UK1" style="shape=partialRectangle;connectable=0;fillColor=none;top=0;left=0;bottom=0;right=0;editable=1;overflow=hidden;" vertex="1" parent="wpq-IQUE76vI2y_NqtaI-88">
          <mxGeometry width="30" height="30" as="geometry">
            <mxRectangle width="30" height="30" as="alternateBounds" />
          </mxGeometry>
        </mxCell>
        <mxCell id="wpq-IQUE76vI2y_NqtaI-90" value="business_key" style="shape=partialRectangle;connectable=0;fillColor=none;top=0;left=0;bottom=0;right=0;align=left;spacingLeft=6;overflow=hidden;" vertex="1" parent="wpq-IQUE76vI2y_NqtaI-88">
          <mxGeometry x="30" width="150" height="30" as="geometry">
            <mxRectangle width="150" height="30" as="alternateBounds" />
          </mxGeometry>
        </mxCell>
        <mxCell id="wpq-IQUE76vI2y_NqtaI-91" value="" style="shape=tableRow;horizontal=0;startSize=0;swimlaneHead=0;swimlaneBody=0;fillColor=none;collapsible=0;dropTarget=0;points=[[0,0.5],[1,0.5]];portConstraint=eastwest;top=0;left=0;right=0;bottom=0;" vertex="1" parent="wpq-IQUE76vI2y_NqtaI-81">
          <mxGeometry y="120" width="180" height="30" as="geometry" />
        </mxCell>
        <mxCell id="wpq-IQUE76vI2y_NqtaI-92" value="" style="shape=partialRectangle;connectable=0;fillColor=none;top=0;left=0;bottom=0;right=0;editable=1;overflow=hidden;" vertex="1" parent="wpq-IQUE76vI2y_NqtaI-91">
          <mxGeometry width="30" height="30" as="geometry">
            <mxRectangle width="30" height="30" as="alternateBounds" />
          </mxGeometry>
        </mxCell>
        <mxCell id="wpq-IQUE76vI2y_NqtaI-93" value="chat_id" style="shape=partialRectangle;connectable=0;fillColor=none;top=0;left=0;bottom=0;right=0;align=left;spacingLeft=6;overflow=hidden;" vertex="1" parent="wpq-IQUE76vI2y_NqtaI-91">
          <mxGeometry x="30" width="150" height="30" as="geometry">
            <mxRectangle width="150" height="30" as="alternateBounds" />
          </mxGeometry>
        </mxCell>
        <mxCell id="wpq-IQUE76vI2y_NqtaI-94" value="微信群" style="rounded=1;whiteSpace=wrap;html=1;sketch=0;fontSize=10;align=left;fillColor=#fff2cc;strokeColor=#d6b656;" vertex="1" parent="1">
          <mxGeometry x="1465" y="830" width="70" height="20" as="geometry" />
        </mxCell>
        <mxCell id="wpq-IQUE76vI2y_NqtaI-95" value="combcenter.work_chat_group_member" style="shape=table;startSize=30;container=1;collapsible=1;childLayout=tableLayout;fixedRows=1;rowLines=0;fontStyle=1;align=center;resizeLast=1;" vertex="1" parent="1">
          <mxGeometry x="1650" y="860" width="220" height="180" as="geometry" />
        </mxCell>
        <mxCell id="wpq-IQUE76vI2y_NqtaI-96" value="" style="shape=tableRow;horizontal=0;startSize=0;swimlaneHead=0;swimlaneBody=0;fillColor=none;collapsible=0;dropTarget=0;points=[[0,0.5],[1,0.5]];portConstraint=eastwest;top=0;left=0;right=0;bottom=1;" vertex="1" parent="wpq-IQUE76vI2y_NqtaI-95">
          <mxGeometry y="30" width="220" height="30" as="geometry" />
        </mxCell>
        <mxCell id="wpq-IQUE76vI2y_NqtaI-97" value="PK" style="shape=partialRectangle;connectable=0;fillColor=none;top=0;left=0;bottom=0;right=0;fontStyle=1;overflow=hidden;" vertex="1" parent="wpq-IQUE76vI2y_NqtaI-96">
          <mxGeometry width="30" height="30" as="geometry">
            <mxRectangle width="30" height="30" as="alternateBounds" />
          </mxGeometry>
        </mxCell>
        <mxCell id="wpq-IQUE76vI2y_NqtaI-98" value="id" style="shape=partialRectangle;connectable=0;fillColor=none;top=0;left=0;bottom=0;right=0;align=left;spacingLeft=6;fontStyle=5;overflow=hidden;" vertex="1" parent="wpq-IQUE76vI2y_NqtaI-96">
          <mxGeometry x="30" width="190" height="30" as="geometry">
            <mxRectangle width="190" height="30" as="alternateBounds" />
          </mxGeometry>
        </mxCell>
        <mxCell id="wpq-IQUE76vI2y_NqtaI-99" value="" style="shape=tableRow;horizontal=0;startSize=0;swimlaneHead=0;swimlaneBody=0;fillColor=none;collapsible=0;dropTarget=0;points=[[0,0.5],[1,0.5]];portConstraint=eastwest;top=0;left=0;right=0;bottom=0;" vertex="1" parent="wpq-IQUE76vI2y_NqtaI-95">
          <mxGeometry y="60" width="220" height="30" as="geometry" />
        </mxCell>
        <mxCell id="wpq-IQUE76vI2y_NqtaI-100" value="" style="shape=partialRectangle;connectable=0;fillColor=none;top=0;left=0;bottom=0;right=0;editable=1;overflow=hidden;" vertex="1" parent="wpq-IQUE76vI2y_NqtaI-99">
          <mxGeometry width="30" height="30" as="geometry">
            <mxRectangle width="30" height="30" as="alternateBounds" />
          </mxGeometry>
        </mxCell>
        <mxCell id="wpq-IQUE76vI2y_NqtaI-101" value="user_id    " style="shape=partialRectangle;connectable=0;fillColor=none;top=0;left=0;bottom=0;right=0;align=left;spacingLeft=6;overflow=hidden;" vertex="1" parent="wpq-IQUE76vI2y_NqtaI-99">
          <mxGeometry x="30" width="190" height="30" as="geometry">
            <mxRectangle width="190" height="30" as="alternateBounds" />
          </mxGeometry>
        </mxCell>
        <mxCell id="wpq-IQUE76vI2y_NqtaI-102" value="" style="shape=tableRow;horizontal=0;startSize=0;swimlaneHead=0;swimlaneBody=0;fillColor=none;collapsible=0;dropTarget=0;points=[[0,0.5],[1,0.5]];portConstraint=eastwest;top=0;left=0;right=0;bottom=0;" vertex="1" parent="wpq-IQUE76vI2y_NqtaI-95">
          <mxGeometry y="90" width="220" height="30" as="geometry" />
        </mxCell>
        <mxCell id="wpq-IQUE76vI2y_NqtaI-103" value="" style="shape=partialRectangle;connectable=0;fillColor=none;top=0;left=0;bottom=0;right=0;editable=1;overflow=hidden;" vertex="1" parent="wpq-IQUE76vI2y_NqtaI-102">
          <mxGeometry width="30" height="30" as="geometry">
            <mxRectangle width="30" height="30" as="alternateBounds" />
          </mxGeometry>
        </mxCell>
        <mxCell id="wpq-IQUE76vI2y_NqtaI-104" value="chat_user_id" style="shape=partialRectangle;connectable=0;fillColor=none;top=0;left=0;bottom=0;right=0;align=left;spacingLeft=6;overflow=hidden;" vertex="1" parent="wpq-IQUE76vI2y_NqtaI-102">
          <mxGeometry x="30" width="190" height="30" as="geometry">
            <mxRectangle width="190" height="30" as="alternateBounds" />
          </mxGeometry>
        </mxCell>
        <mxCell id="wpq-IQUE76vI2y_NqtaI-105" value="" style="shape=tableRow;horizontal=0;startSize=0;swimlaneHead=0;swimlaneBody=0;fillColor=none;collapsible=0;dropTarget=0;points=[[0,0.5],[1,0.5]];portConstraint=eastwest;top=0;left=0;right=0;bottom=0;" vertex="1" parent="wpq-IQUE76vI2y_NqtaI-95">
          <mxGeometry y="120" width="220" height="30" as="geometry" />
        </mxCell>
        <mxCell id="wpq-IQUE76vI2y_NqtaI-106" value="" style="shape=partialRectangle;connectable=0;fillColor=none;top=0;left=0;bottom=0;right=0;editable=1;overflow=hidden;" vertex="1" parent="wpq-IQUE76vI2y_NqtaI-105">
          <mxGeometry width="30" height="30" as="geometry">
            <mxRectangle width="30" height="30" as="alternateBounds" />
          </mxGeometry>
        </mxCell>
        <mxCell id="wpq-IQUE76vI2y_NqtaI-107" value="chat_id" style="shape=partialRectangle;connectable=0;fillColor=none;top=0;left=0;bottom=0;right=0;align=left;spacingLeft=6;overflow=hidden;" vertex="1" parent="wpq-IQUE76vI2y_NqtaI-105">
          <mxGeometry x="30" width="190" height="30" as="geometry">
            <mxRectangle width="190" height="30" as="alternateBounds" />
          </mxGeometry>
        </mxCell>
        <mxCell id="wpq-IQUE76vI2y_NqtaI-123" value="" style="shape=tableRow;horizontal=0;startSize=0;swimlaneHead=0;swimlaneBody=0;fillColor=none;collapsible=0;dropTarget=0;points=[[0,0.5],[1,0.5]];portConstraint=eastwest;top=0;left=0;right=0;bottom=0;" vertex="1" parent="wpq-IQUE76vI2y_NqtaI-95">
          <mxGeometry y="150" width="220" height="30" as="geometry" />
        </mxCell>
        <mxCell id="wpq-IQUE76vI2y_NqtaI-124" value="" style="shape=partialRectangle;connectable=0;fillColor=none;top=0;left=0;bottom=0;right=0;editable=1;overflow=hidden;" vertex="1" parent="wpq-IQUE76vI2y_NqtaI-123">
          <mxGeometry width="30" height="30" as="geometry">
            <mxRectangle width="30" height="30" as="alternateBounds" />
          </mxGeometry>
        </mxCell>
        <mxCell id="wpq-IQUE76vI2y_NqtaI-125" value="union_id" style="shape=partialRectangle;connectable=0;fillColor=none;top=0;left=0;bottom=0;right=0;align=left;spacingLeft=6;overflow=hidden;" vertex="1" parent="wpq-IQUE76vI2y_NqtaI-123">
          <mxGeometry x="30" width="190" height="30" as="geometry">
            <mxRectangle width="190" height="30" as="alternateBounds" />
          </mxGeometry>
        </mxCell>
        <mxCell id="wpq-IQUE76vI2y_NqtaI-108" value="微信群成员" style="rounded=1;whiteSpace=wrap;html=1;sketch=0;fontSize=10;align=left;fillColor=#fff2cc;strokeColor=#d6b656;" vertex="1" parent="1">
          <mxGeometry x="1705" y="830" width="70" height="20" as="geometry" />
        </mxCell>
        <mxCell id="wpq-IQUE76vI2y_NqtaI-126" value="" style="edgeStyle=entityRelationEdgeStyle;fontSize=12;html=1;endArrow=ERoneToMany;startArrow=ERzeroToOne;rounded=0;exitX=1.003;exitY=0.267;exitDx=0;exitDy=0;entryX=0;entryY=0.5;entryDx=0;entryDy=0;exitPerimeter=0;" edge="1" parent="1" source="wpq-IQUE76vI2y_NqtaI-91" target="wpq-IQUE76vI2y_NqtaI-105">
          <mxGeometry width="100" height="100" relative="1" as="geometry">
            <mxPoint x="1780" y="725" as="sourcePoint" />
            <mxPoint x="1870" y="725" as="targetPoint" />
          </mxGeometry>
        </mxCell>
        <mxCell id="wpq-IQUE76vI2y_NqtaI-141" style="edgeStyle=orthogonalEdgeStyle;rounded=0;orthogonalLoop=1;jettySize=auto;html=1;exitX=0;exitY=0.5;exitDx=0;exitDy=0;entryX=-0.025;entryY=0.233;entryDx=0;entryDy=0;entryPerimeter=0;" edge="1" parent="1" source="wpq-IQUE76vI2y_NqtaI-23" target="wpq-IQUE76vI2y_NqtaI-88">
          <mxGeometry relative="1" as="geometry">
            <Array as="points">
              <mxPoint x="1730" y="715" />
              <mxPoint x="1730" y="790" />
              <mxPoint x="1390" y="790" />
              <mxPoint x="1390" y="958" />
            </Array>
          </mxGeometry>
        </mxCell>
        <mxCell id="wpq-IQUE76vI2y_NqtaI-157" value="0:1" style="edgeLabel;html=1;align=center;verticalAlign=middle;resizable=0;points=[];" vertex="1" connectable="0" parent="wpq-IQUE76vI2y_NqtaI-141">
          <mxGeometry x="0.1087" y="1" relative="1" as="geometry">
            <mxPoint x="1" as="offset" />
          </mxGeometry>
        </mxCell>
        <mxCell id="wpq-IQUE76vI2y_NqtaI-142" style="edgeStyle=orthogonalEdgeStyle;rounded=0;orthogonalLoop=1;jettySize=auto;html=1;exitX=0;exitY=0.5;exitDx=0;exitDy=0;entryX=0.008;entryY=0.9;entryDx=0;entryDy=0;entryPerimeter=0;" edge="1" parent="1" source="wpq-IQUE76vI2y_NqtaI-75" target="wpq-IQUE76vI2y_NqtaI-88">
          <mxGeometry relative="1" as="geometry" />
        </mxCell>
        <mxCell id="wpq-IQUE76vI2y_NqtaI-158" value="0:1" style="edgeLabel;html=1;align=center;verticalAlign=middle;resizable=0;points=[];" vertex="1" connectable="0" parent="wpq-IQUE76vI2y_NqtaI-142">
          <mxGeometry x="-0.3781" y="-3" relative="1" as="geometry">
            <mxPoint as="offset" />
          </mxGeometry>
        </mxCell>
        <mxCell id="wpq-IQUE76vI2y_NqtaI-160" value="" style="rounded=0;whiteSpace=wrap;html=1;fillColor=#dae8fc;strokeColor=#6c8ebf;opacity=40;gradientColor=default;" vertex="1" parent="1">
          <mxGeometry x="1345" y="820" width="575" height="260" as="geometry" />
        </mxCell>
        <mxCell id="wpq-IQUE76vI2y_NqtaI-161" value="外部微信群信息" style="rounded=0;whiteSpace=wrap;html=1;fillColor=#dae8fc;strokeColor=#6c8ebf;" vertex="1" parent="1">
          <mxGeometry x="1830" y="1060" width="90" height="20" as="geometry" />
        </mxCell>
      </root>
    </mxGraphModel>
  </diagram>
</mxfile>
